<?xml version="1.0" encoding="utf-8"?>
<!-- Generator: Adobe Illustrator 27.2.0, SVG Export Plug-In . SVG Version: 6.00 Build 0)  -->
<svg version="1.1" id="Layer_1" xmlns="http://www.w3.org/2000/svg" xmlns:xlink="http://www.w3.org/1999/xlink" x="0px" y="0px"
	 viewBox="0 0 128 128" style="enable-background:new 0 0 128 128;" xml:space="preserve">
<style type="text/css">
	.st0{fill-rule:evenodd;clip-rule:evenodd;fill:#579BD4;}
	.st1{fill-rule:evenodd;clip-rule:evenodd;fill:#589CD4;}
</style>
<g>
	<path class="st0" d="M24.64,37.66V82h8.87V63.25H49.6v-6.97c-5.36,0-10.73,0-16.09,0c0-3.82,0-7.64,0-11.47l0,0h20.21v-7.16H24.64z
		"/>
	<path class="st0" d="M80.01,61.54c-0.16-0.68-0.5-1.64-1.26-2.51c-1.99-2.26-5.78-2.65-8.48-1.27c-3.99,2.03-4.06,7.14-4.07,7.95
		c-0.04,3.19,1.41,7.9,5.28,9.16c2.16,0.7,5.21,0.37,7.09-1.62c0.88-0.93,1.26-1.97,1.44-2.64c3.15,0,6.29,0,9.44,0
		c-0.3,1.52-1.09,4.36-3.37,6.98c-4.68,5.38-11.68,5.26-13.51,5.16c-1.36-0.08-5.52-0.38-9.37-3.43c-0.74-0.59-2.9-2.4-4.43-5.54
		c-1.71-3.5-1.66-6.65-1.62-8.2c0.06-2.39,0.56-4.33,0.99-5.62c0.36-1.08,1.76-4.52,5.11-7.18c1.5-1.19,2.93-1.85,3.41-2.06
		c0.34-0.15,1.39-0.6,2.91-0.95c4.51-1.04,8.26-0.07,9.09,0.16c0.73,0.2,1.94,0.54,3.39,1.33c2.24,1.22,3.62,2.72,4.17,3.37
		c2.25,2.65,2.96,5.48,3.22,6.92C86.3,61.54,83.15,61.54,80.01,61.54z"/>
	<path class="st1" d="M100.79,72.18c0.54,0,1.4,0.01,2.38,0.44c0.92,0.4,1.49,0.96,1.69,1.16c0.6,0.62,0.88,1.23,0.97,1.44
		c0.4,0.91,0.43,1.75,0.4,2.23c-0.01,0.38-0.07,0.94-0.32,1.58c-0.08,0.2-0.34,0.84-0.91,1.5c-0.23,0.26-0.86,0.93-1.93,1.38
		c-0.96,0.4-1.81,0.43-2.29,0.41c-0.46,0.01-1.11-0.02-1.85-0.26c-1.02-0.33-1.68-0.87-1.91-1.08c-0.63-0.56-0.97-1.13-1.06-1.3
		c-0.15-0.26-0.66-1.23-0.63-2.57c0.03-1.23,0.49-2.1,0.62-2.33c0.12-0.22,0.56-0.96,1.44-1.6c0.14-0.1,0.74-0.52,1.65-0.79
		C99.81,72.18,100.42,72.18,100.79,72.18z"/>
</g>
</svg>
